<svg xmlns="http://www.w3.org/2000/svg" viewBox="0 0 1200 800">
  <!-- Background -->
  <rect width="1200" height="800" fill="#f5f5f5"/>

  <!-- Sidebar -->
  <rect x="0" y="0" width="250" height="800" fill="#ffffff" stroke="#ddd" stroke-width="2"/>
  <text x="125" y="40" font-size="20" font-weight="bold" text-anchor="middle" fill="#333">RoomMove</text>

  <!-- Date Input Section -->
  <rect x="20" y="80" width="210" height="100" fill="#f9f9f9" stroke="#ccc" stroke-width="1" rx="5"/>
  <text x="30" y="105" font-size="14" font-weight="bold" fill="#555">이사 날짜 입력</text>
  <rect x="30" y="120" width="190" height="40" fill="#fff" stroke="#aaa" stroke-width="1" rx="3"/>
  <text x="40" y="145" font-size="12" fill="#999">📅 2025-11-16</text>

  <!-- Region Filter Section -->
  <rect x="20" y="200" width="210" height="80" fill="#f9f9f9" stroke="#ccc" stroke-width="1" rx="5"/>
  <text x="30" y="225" font-size="14" font-weight="bold" fill="#555">지역 선택</text>
  <rect x="30" y="240" width="190" height="30" fill="#fff" stroke="#aaa" stroke-width="1" rx="3"/>
  <text x="40" y="260" font-size="12" fill="#999">서울 강남구 ▼</text>

  <!-- App Info -->
  <text x="30" y="320" font-size="12" fill="#777">버전: 1.0</text>
  <text x="30" y="340" font-size="12" fill="#777">문의: support@roommove.com</text>

  <!-- Main Content Area -->
  <rect x="270" y="0" width="930" height="800" fill="#ffffff" stroke="#ddd" stroke-width="2"/>

  <!-- Header -->
  <text x="640" y="50" font-size="24" font-weight="bold" text-anchor="middle" fill="#333">🚚 이삿짐 센터 정보</text>

  <!-- Filter Section -->
  <rect x="290" y="80" width="890" height="60" fill="#f9f9f9" stroke="#ddd" stroke-width="1" rx="5"/>
  <text x="310" y="105" font-size="14" font-weight="bold" fill="#555">필터</text>
  <rect x="310" y="112" width="150" height="20" fill="#fff" stroke="#aaa" stroke-width="1" rx="3"/>
  <text x="320" y="127" font-size="12" fill="#999">지역: 서울 강남구 ▼</text>

  <rect x="480" y="112" width="150" height="20" fill="#fff" stroke="#aaa" stroke-width="1" rx="3"/>
  <text x="490" y="127" font-size="12" fill="#999">가격순 정렬 ▼</text>

  <rect x="650" y="112" width="100" height="20" fill="#2196f3" stroke="#2196f3" stroke-width="1" rx="3"/>
  <text x="700" y="127" font-size="12" font-weight="bold" text-anchor="middle" fill="#fff">검색</text>

  <!-- Movers List -->
  <rect x="290" y="160" width="890" height="480" fill="#fff" stroke="#ddd" stroke-width="1" rx="5"/>

  <!-- Mover Card 1 -->
  <rect x="310" y="180" width="850" height="80" fill="#fafafa" stroke="#ddd" stroke-width="1" rx="5"/>
  <text x="330" y="205" font-size="16" font-weight="bold" fill="#333">1인 가구 전문 이삿짐</text>
  <text x="330" y="225" font-size="13" fill="#666">📞 02-5678-9012</text>
  <text x="330" y="245" font-size="13" fill="#666">📍 서울 강남구</text>
  <rect x="1000" y="195" width="140" height="40" fill="#4caf50" stroke="#4caf50" stroke-width="1" rx="5"/>
  <text x="1070" y="220" font-size="18" font-weight="bold" text-anchor="middle" fill="#fff">25만원</text>

  <!-- Mover Card 2 -->
  <rect x="310" y="270" width="850" height="80" fill="#fafafa" stroke="#ddd" stroke-width="1" rx="5"/>
  <text x="330" y="295" font-size="16" font-weight="bold" fill="#333">서울 빠른 이사</text>
  <text x="330" y="315" font-size="13" fill="#666">📞 02-2345-6789</text>
  <text x="330" y="335" font-size="13" fill="#666">📍 서울 강남구</text>
  <rect x="1000" y="285" width="140" height="40" fill="#4caf50" stroke="#4caf50" stroke-width="1" rx="5"/>
  <text x="1070" y="310" font-size="18" font-weight="bold" text-anchor="middle" fill="#fff">28만원</text>

  <!-- Mover Card 3 -->
  <rect x="310" y="360" width="850" height="80" fill="#fafafa" stroke="#ddd" stroke-width="1" rx="5"/>
  <text x="330" y="385" font-size="16" font-weight="bold" fill="#333">강남 이사 전문</text>
  <text x="330" y="405" font-size="13" fill="#666">📞 02-1234-5678</text>
  <text x="330" y="425" font-size="13" fill="#666">📍 서울 강남구</text>
  <rect x="1000" y="375" width="140" height="40" fill="#ff9800" stroke="#ff9800" stroke-width="1" rx="5"/>
  <text x="1070" y="400" font-size="18" font-weight="bold" text-anchor="middle" fill="#fff">30만원</text>

  <!-- Mover Card 4 -->
  <rect x="310" y="450" width="850" height="80" fill="#fafafa" stroke="#ddd" stroke-width="1" rx="5"/>
  <text x="330" y="475" font-size="16" font-weight="bold" fill="#333">믿음 이삿짐</text>
  <text x="330" y="495" font-size="13" fill="#666">📞 02-3456-7890</text>
  <text x="330" y="515" font-size="13" fill="#666">📍 서울 강남구</text>
  <rect x="1000" y="465" width="140" height="40" fill="#ff9800" stroke="#ff9800" stroke-width="1" rx="5"/>
  <text x="1070" y="490" font-size="18" font-weight="bold" text-anchor="middle" fill="#fff">32만원</text>

  <!-- Mover Card 5 -->
  <rect x="310" y="540" width="850" height="80" fill="#fafafa" stroke="#ddd" stroke-width="1" rx="5"/>
  <text x="330" y="565" font-size="16" font-weight="bold" fill="#333">안전 포장 이사</text>
  <text x="330" y="585" font-size="13" fill="#666">📞 02-4567-8901</text>
  <text x="330" y="605" font-size="13" fill="#666">📍 서울 강남구</text>
  <rect x="1000" y="555" width="140" height="40" fill="#f44336" stroke="#f44336" stroke-width="1" rx="5"/>
  <text x="1070" y="580" font-size="18" font-weight="bold" text-anchor="middle" fill="#fff">35만원</text>

  <!-- Tab Navigation at Bottom -->
  <rect x="290" y="660" width="890" height="50" fill="#f5f5f5" stroke="#ddd" stroke-width="1"/>
  <rect x="585" y="660" width="295" height="50" fill="#2196f3"/>
  <text x="437" y="690" font-size="14" text-anchor="middle" fill="#555">홈</text>
  <text x="732" y="690" font-size="14" font-weight="bold" text-anchor="middle" fill="#fff">이삿짐 정보</text>
  <text x="1027" y="690" font-size="14" text-anchor="middle" fill="#555">도움말</text>
</svg>